<svg width="1440" height="656" viewBox="0 0 1440 656" fill="none" xmlns="http://www.w3.org/2000/svg">
<path opacity="0.3" fill-rule="evenodd" clip-rule="evenodd" d="M1446.96 573.235C1442.98 570.803 1437.78 572.06 1435.35 576.041L1424.92 593.115L1407.85 582.687C1403.87 580.255 1398.67 581.511 1396.24 585.492C1393.8 589.474 1395.06 594.673 1399.04 597.105L1416.11 607.533L1405.69 624.607C1403.25 628.589 1404.51 633.788 1408.49 636.22C1412.47 638.652 1417.67 637.396 1420.1 633.414L1430.53 616.34L1447.61 626.769C1451.59 629.201 1456.79 627.945 1459.22 623.963C1461.65 619.982 1460.4 614.783 1456.41 612.351L1439.34 601.922L1449.77 584.848C1452.2 580.866 1450.94 575.667 1446.96 573.235Z" fill="#713BDB"/>
<circle opacity="0.03" cx="35.5" cy="479.5" r="168.5" fill="#713BDB"/>
<circle opacity="0.1" cy="40" r="32.5" stroke="#713BDB" stroke-width="15"/>
</svg>
