<svg width="1276" height="4080" viewBox="0 0 1276 4080" fill="none" xmlns="http://www.w3.org/2000/svg">
<path opacity="0.3" fill-rule="evenodd" clip-rule="evenodd" d="M44.8419 72.7955C42.6884 71.4801 39.8763 72.1596 38.561 74.3131L32.9202 83.5482L23.6851 77.9075C21.5315 76.5921 18.7195 77.2716 17.4041 79.4251C16.0887 81.5786 16.7682 84.3907 18.9217 85.706L28.1568 91.3468L22.516 100.582C21.2007 102.735 21.8801 105.548 24.0337 106.863C26.1872 108.178 28.9992 107.499 30.3146 105.345L35.9554 96.1101L45.1906 101.751C47.3441 103.066 50.1561 102.387 51.4715 100.233C52.7869 98.0798 52.1074 95.2677 49.9539 93.9524L40.7187 88.3116L46.3595 79.0764C47.6749 76.9229 46.9954 74.1109 44.8419 72.7955Z" fill="#713BDB"/>
<path opacity="0.3" fill-rule="evenodd" clip-rule="evenodd" d="M37.8419 1303.4C35.6884 1302.09 32.8763 1302.77 31.561 1304.92L25.9202 1314.16L16.6851 1308.52C14.5315 1307.2 11.7195 1307.88 10.4041 1310.03C9.08874 1312.19 9.7682 1315 11.9217 1316.31L21.1568 1321.96L15.516 1331.19C14.2007 1333.34 14.8801 1336.16 17.0337 1337.47C19.1872 1338.79 21.9992 1338.11 23.3146 1335.95L28.9554 1326.72L38.1906 1332.36C40.3441 1333.67 43.1561 1333 44.4715 1330.84C45.7869 1328.69 45.1074 1325.88 42.9539 1324.56L33.7187 1318.92L39.3595 1309.69C40.6749 1307.53 39.9954 1304.72 37.8419 1303.4Z" fill="#713BDB"/>
<path opacity="0.3" fill-rule="evenodd" clip-rule="evenodd" d="M1214.84 4035.4C1212.69 4034.09 1209.88 4034.77 1208.56 4036.92L1202.92 4046.16L1193.68 4040.52C1191.53 4039.2 1188.72 4039.88 1187.4 4042.03C1186.09 4044.19 1186.77 4047 1188.92 4048.31L1198.16 4053.96L1192.52 4063.19C1191.2 4065.34 1191.88 4068.16 1194.03 4069.47C1196.19 4070.79 1199 4070.11 1200.31 4067.95L1205.96 4058.72L1215.19 4064.36C1217.34 4065.67 1220.16 4065 1221.47 4062.84C1222.79 4060.69 1222.11 4057.88 1219.95 4056.56L1210.72 4050.92L1216.36 4041.69C1217.67 4039.53 1217 4036.72 1214.84 4035.4Z" fill="#713BDB"/>
<path opacity="0.5" fill-rule="evenodd" clip-rule="evenodd" d="M1186.39 343.391C1184.95 345.463 1185.46 348.31 1187.53 349.75L1196.42 355.926L1190.25 364.812C1188.81 366.884 1189.32 369.732 1191.39 371.172C1193.46 372.612 1196.31 372.099 1197.75 370.027L1203.93 361.14L1212.81 367.316C1214.88 368.756 1217.73 368.243 1219.17 366.171C1220.61 364.099 1220.1 361.252 1218.03 359.812L1209.14 353.636L1215.32 344.75C1216.76 342.677 1216.24 339.83 1214.17 338.39C1212.1 336.95 1209.25 337.463 1207.81 339.535L1201.64 348.421L1192.75 342.246C1190.68 340.806 1187.83 341.319 1186.39 343.391Z" fill="#713BDB"/>
<circle opacity="0.3" cx="1182" cy="8" r="8" fill="#713BDB"/>
<circle opacity="0.1" cx="1236" cy="2296" r="32.5" stroke="#713BDB" stroke-width="15"/>
</svg>
