<svg width="34" height="34" viewBox="0 0 34 34" fill="none" xmlns="http://www.w3.org/2000/svg">
<path fill-rule="evenodd" clip-rule="evenodd" d="M25.1906 8.81024C25.2895 8.90894 25.368 9.02619 25.4216 9.15527C25.4752 9.28435 25.5027 9.42274 25.5027 9.56249C25.5027 9.70225 25.4752 9.84063 25.4216 9.96971C25.368 10.0988 25.2895 10.216 25.1906 10.3147L10.3156 25.1897C10.1161 25.3892 9.8455 25.5013 9.56335 25.5013C9.28121 25.5013 9.01061 25.3892 8.8111 25.1897C8.61159 24.9902 8.49951 24.7196 8.49951 24.4375C8.49951 24.1553 8.61159 23.8847 8.8111 23.6852L23.6861 8.81024C23.7848 8.71129 23.902 8.63279 24.0311 8.57923C24.1602 8.52566 24.2986 8.49809 24.4383 8.49809C24.5781 8.49809 24.7165 8.52566 24.8456 8.57923C24.9747 8.63279 25.0919 8.71129 25.1906 8.81024Z" fill="black"/>
<path fill-rule="evenodd" clip-rule="evenodd" d="M8.8102 8.81024C8.71125 8.90894 8.63275 9.02619 8.57918 9.15527C8.52562 9.28435 8.49805 9.42274 8.49805 9.56249C8.49805 9.70225 8.52562 9.84063 8.57918 9.96971C8.63275 10.0988 8.71125 10.216 8.8102 10.3147L23.6852 25.1897C23.8847 25.3892 24.1553 25.5013 24.4374 25.5013C24.7196 25.5013 24.9902 25.3892 25.1897 25.1897C25.3892 24.9902 25.5013 24.7196 25.5013 24.4375C25.5013 24.1553 25.3892 23.8847 25.1897 23.6852L10.3147 8.81024C10.216 8.71129 10.0988 8.63279 9.96967 8.57923C9.84058 8.52566 9.7022 8.49809 9.56245 8.49809C9.42269 8.49809 9.28431 8.52566 9.15522 8.57923C9.02614 8.63279 8.90889 8.71129 8.8102 8.81024Z" fill="black"/>
</svg>
