<svg width="50" height="50" viewBox="0 0 50 50" fill="none" xmlns="http://www.w3.org/2000/svg">
<g clip-path="url(#clip0)">
<path d="M1.5625 26.5624C1.5625 31.5624 3.28125 36.4062 6.40625 40.3124L7.03125 41.0156L24.6875 23.3593L37.8906 10.0781L37.1875 9.53119C27.8125 1.95307 14.0625 3.43744 6.48438 12.8124C3.28125 16.7187 1.5625 21.5624 1.5625 26.5624ZM16.5625 14.3749L16.6406 14.0624H22.4219L22.5 14.3749C22.5781 15.0781 22.4219 15.7812 22.0312 16.3281L21.0938 17.7343V20.3124H17.9688V17.7343L17.0312 16.3281C16.6406 15.7812 16.4844 15.0781 16.5625 14.3749ZM17.0312 12.4999C17.7344 11.0937 19.375 10.5468 20.7812 11.2499C21.3281 11.4843 21.7969 11.9531 22.0312 12.4999H17.0312ZM17.3438 21.8749H18.75V27.0312L14.8438 30.9374V27.3437H13.2812V32.4999L10.1562 35.6249V26.9531C10.1562 26.0937 10.625 25.2343 11.4844 24.8437L17.3438 21.8749ZM20.3125 25.4687V21.8749H21.7188L23.2031 22.5781L20.3125 25.4687ZM24.2969 21.4843L22.6562 20.6249V18.2031L23.3594 17.1874C23.9844 16.3281 24.2188 15.2343 24.0625 14.1406L23.9062 13.1249C23.5938 10.7031 21.3281 9.06244 18.9844 9.37494C17.0312 9.68744 15.5469 11.1718 15.2344 13.1249L15.0781 14.1406C14.9219 15.2343 15.1563 16.3281 15.7813 17.1874L16.4844 18.2031V20.6249L10.7812 23.4374C9.45312 24.0624 8.59375 25.4687 8.59375 26.9531V37.2656L7.10938 38.7499C0.46875 29.6874 2.34375 16.9531 11.3281 10.2343C18.5156 4.92182 28.3594 4.92182 35.4688 10.2343L24.2969 21.4843Z" fill="#713BDB"/>
<path d="M43.0469 10.5469L12.1094 41.4844L12.8125 42.0313C22.1875 49.6094 35.9375 48.2031 43.5938 38.8281C50.0781 30.7813 50.0781 19.2969 43.5938 11.25L43.0469 10.5469ZM34.6094 28.9063H40.3906L40.5469 30C40.5469 30.1563 40.5469 30.3906 40.3906 30.5469L39.0625 32.5781V35.625L37.5 37.1875L35.9375 35.625V32.5781L34.6094 30.5469C34.5313 30.3906 34.4531 30.1563 34.4531 30L34.6094 28.9063ZM34.8438 27.3438L35 26.4844C35.0781 26.0938 35.3906 25.7813 35.7813 25.7813H39.2969C39.6875 25.7813 40 26.0938 40.0781 26.4844L40.2344 27.3438H34.8438ZM35 36.875L36.7188 38.5938V42.5781C34.0625 44.1406 31.1719 45 28.125 45.2344V40.7813C28.125 40.4688 28.2812 40.2344 28.5938 40.0781L35 36.875ZM38.2813 41.5625V38.5938L40 36.875L42.1875 37.9688C41.0156 39.375 39.7656 40.5469 38.2813 41.5625ZM43.125 36.7188L40.625 35.4688V33.0469L41.7188 31.4063C42.0313 30.9375 42.1875 30.3125 42.1094 29.7656L41.6406 26.25C41.4844 25.0781 40.4688 24.2188 39.2969 24.2188H35.7813C34.6094 24.2188 33.5938 25.0781 33.4375 26.25L32.9688 29.7656C32.8906 30.3125 33.0469 30.9375 33.3594 31.4063L34.4531 33.0469V35.4688L27.9688 38.75C27.1875 39.1406 26.6406 39.9219 26.6406 40.8594V45.3125C22.2656 45.3125 18.0469 43.9063 14.5313 41.3281L42.9688 12.8906C48.125 19.9219 48.2031 29.5313 43.125 36.7188Z" fill="#713BDB"/>
<path d="M42.4554 18.1583L39.3066 21.3071L40.4115 22.412L43.5603 19.2632L42.4554 18.1583Z" fill="#713BDB"/>
<path d="M22.0917 39.3029L19.7715 41.623L20.8763 42.7279L23.1965 40.4077L22.0917 39.3029Z" fill="#713BDB"/>
<path d="M28.385 31.447L23.6895 36.1426L24.7943 37.2474L29.4899 32.5518L28.385 31.447Z" fill="#713BDB"/>
<path d="M40.8418 5.70962L38.5216 8.02979L39.6265 9.13463L41.9466 6.81446L40.8418 5.70962Z" fill="#713BDB"/>
<path d="M39.3266 0.974778L35.4044 4.89697L36.5093 6.00182L40.4315 2.07962L39.3266 0.974778Z" fill="#713BDB"/>
<path d="M10.4163 43.1657L5.7207 47.8613L6.82555 48.9662L11.5211 44.2706L10.4163 43.1657Z" fill="#713BDB"/>
<path d="M13.4979 45.5529L11.1777 47.873L12.2826 48.9779L14.6028 46.6577L13.4979 45.5529Z" fill="#713BDB"/>
<path d="M29.9043 9.61587L27.5841 11.936L28.689 13.0409L31.0091 10.7207L29.9043 9.61587Z" fill="#713BDB"/>
<path d="M10.4462 16.6291L6.13733 20.938L7.24217 22.0428L11.5511 17.7339L10.4462 16.6291Z" fill="#713BDB"/>
<path d="M34.375 40.625H31.25V42.1875H34.375V40.625Z" fill="#713BDB"/>
</g>
<defs>
<clipPath id="clip0">
<rect width="50" height="50" fill="white"/>
</clipPath>
</defs>
</svg>
