<svg width="1440" height="1365" viewBox="0 0 1440 1365" fill="none" xmlns="http://www.w3.org/2000/svg">
<path fill-rule="evenodd" clip-rule="evenodd" d="M0 243.311L80 209.622C160 175.933 320 108.554 480 115.105C553.488 118.114 626.977 136.718 700.465 155.323C786.977 177.225 873.488 199.126 960 195.585C1118.33 189.102 1276.67 96.4769 1357.47 49.2043L1360 47.7264L1440 0V291V323.791V1038V1191V1364.46H1380C1320 1364.46 1200 1364.46 1080 1322.95C960 1282.37 822 1246.52 702 1225.76C582 1205.95 480 1201.23 360 1241.8C240 1282.37 120 1322.95 60 1343.7L0 1364.46V1191V323.791V291V243.311Z" fill="#713BDB"/>
</svg>
