<svg width="1440" height="1458" viewBox="0 0 1440 1458" fill="none" xmlns="http://www.w3.org/2000/svg">
<path fill-rule="evenodd" clip-rule="evenodd" d="M0 279.311L80 245.622C160 211.933 320 144.554 480 151.105C553.488 154.114 626.977 172.718 700.465 191.323C786.977 213.225 873.488 235.126 960 231.585C1118.33 225.102 1276.67 132.477 1357.47 85.2043L1360 83.7264L1440 36V327V359.791V1074V1227V1400.46H1380C1320 1400.46 1200 1400.46 1080 1358.95C960 1318.37 822 1282.52 702 1261.76C582 1241.95 480 1237.23 360 1277.8C240 1318.37 120 1358.95 60 1379.7L0 1400.46V1227V359.791V327V279.311Z" fill="#713BDB"/>
<path opacity="0.21" fill-rule="evenodd" clip-rule="evenodd" d="M-249 279.311L-169 245.622C-89 211.932 71 144.554 231 151.105C304.488 154.113 377.977 172.718 451.465 191.323C537.977 213.225 624.488 235.126 711 231.584C871 225.034 1391.5 95.0169 1471.5 48.2264L1551.5 0.5V324.291H1471.5C1438.36 324.291 1329.65 330.382 1202.28 337.517L1191 338.149V1131H1490L1550 1131V1457.46H1490C1430 1457.46 1310 1457.46 1190 1415.94C1070 1375.37 932 1339.52 812 1318.76C692 1298.95 590 1294.23 470 1334.8C400.25 1358.38 274.249 1374.95 169.17 1388.77C93.4678 1398.73 28.6251 1407.25 3.5 1415.95L-56.5 1436.7L-56.5 1227H-249V359.791V327V279.311Z" fill="#713BDB"/>
</svg>
