<svg width="37" height="50" viewBox="0 0 37 50" fill="none" xmlns="http://www.w3.org/2000/svg">
<path d="M18.5001 49.9996C14.4709 49.9993 10.5519 48.6658 7.33881 46.2018C4.1257 43.7377 1.79416 40.2779 0.698539 36.3481C-0.397081 32.4182 -0.196873 28.2334 1.26874 24.4294C2.73434 20.6255 5.38521 17.4105 8.81846 15.273C9.11838 15.0849 9.47289 15.0067 9.82285 15.0514C10.1728 15.0962 10.497 15.2612 10.7414 15.519C10.9858 15.7767 11.1356 16.1116 11.1659 16.4678C11.1961 16.824 11.1048 17.1799 10.9074 17.4762C10.021 18.8121 7.70846 22.9293 7.70846 25.7808C7.70124 26.501 7.83588 27.2155 8.10449 27.8823C8.3731 28.5491 8.77029 29.1549 9.27278 29.6641C9.77527 30.1734 10.373 30.576 11.0309 30.8482C11.6888 31.1204 12.3937 31.2569 13.1043 31.2496C15.7868 31.2496 18.5001 29.5621 18.5001 25.7808C18.5001 24.3043 17.7293 22.9918 16.9122 21.4605C14.5997 17.2574 11.6474 12.0308 21.9843 0.507412C22.2281 0.234032 22.5594 0.0567919 22.9197 0.00700474C23.2799 -0.0427824 23.646 0.0380881 23.9531 0.235328C24.2603 0.432569 24.4887 0.733484 24.5982 1.08491C24.7076 1.43634 24.6909 1.81566 24.5512 2.15585C21.383 9.96835 24.5512 12.773 28.9835 16.6715C32.7374 19.9996 37.0001 23.7652 37.0001 31.2496C37.0001 36.2224 35.051 40.9915 31.5816 44.5078C28.1122 48.0242 23.4066 49.9996 18.5001 49.9996ZM4.77929 24.0933C3.71656 26.1958 3.13802 28.515 3.08716 30.8767C3.0363 33.2384 3.51445 35.5811 4.48566 37.7285C5.45687 39.8759 6.89585 41.7721 8.69437 43.2747C10.4929 44.7772 12.6041 45.8468 14.8693 46.4032C17.1345 46.9595 19.4947 46.988 21.7724 46.4866C24.05 45.9853 26.1859 44.967 28.0193 43.5084C29.8526 42.0498 31.3359 40.1889 32.3574 38.0656C33.3789 35.9423 33.912 33.6118 33.9168 31.2496C33.9168 25.1871 30.5328 22.1949 26.9793 19.0308C23.7957 16.2105 20.2962 13.1246 20.2422 7.77304C16.257 13.9058 17.9297 16.8512 19.6178 19.9293C20.5737 21.6715 21.5835 23.484 21.5835 25.7808C21.6222 26.92 21.4293 28.055 21.0169 29.1154C20.6045 30.1758 19.9813 31.1389 19.1861 31.9448C18.3909 32.7508 17.4406 33.3824 16.3944 33.8004C15.3481 34.2184 14.2282 34.4138 13.1043 34.3746C11.9873 34.3872 10.8792 34.1734 9.84485 33.746C8.81052 33.3186 7.87085 32.686 7.081 31.8855C6.29116 31.085 5.66706 30.1326 5.24532 29.0843C4.82359 28.036 4.61273 26.9129 4.62512 25.7808C4.62851 25.2149 4.68009 24.6503 4.77929 24.0933Z" fill="#713BDB"/>
</svg>
