<svg width="1440" height="1059" viewBox="0 0 1440 1059" fill="none" xmlns="http://www.w3.org/2000/svg">
<rect x="165" y="491" width="445" height="149" rx="20" fill="white"/>
<g filter="url(#filter0_d)">
<rect x="198" y="140" width="1045" height="659" rx="20" fill="white"/>
</g>
<g filter="url(#filter1_f)">
<rect x="221" y="166" width="999" height="607" rx="20" fill="#F4F5F9" fill-opacity="0.76"/>
</g>
<rect x="261" y="186" width="214.144" height="102.939" rx="10" fill="white"/>
<rect x="261" y="309" width="680" height="234" rx="10" fill="white"/>
<rect x="261" y="566" width="919" height="183" rx="10" fill="white"/>
<rect x="963" y="186" width="217" height="357" rx="10" fill="white"/>
<rect x="353.42" y="219.812" width="70.6298" height="13.5249" rx="6.76243" fill="#EDEDED"/>
<rect x="353.42" y="242.354" width="104.442" height="13.5249" rx="6.76243" fill="#E1E1E1"/>
<rect x="493.901" y="186" width="214.144" height="102.939" rx="10" fill="white"/>
<rect x="587.823" y="219.812" width="70.6298" height="13.5249" rx="6.76243" fill="#EDEDED"/>
<rect x="587.823" y="242.354" width="104.442" height="13.5249" rx="6.76243" fill="#E1E1E1"/>
<rect x="726.856" y="186" width="214.144" height="102.939" rx="10" fill="white"/>
<circle opacity="0.3" cx="775.32" cy="237.47" r="31.9337" fill="#84E0A9"/>
<circle opacity="0.3" cx="541.934" cy="237.47" r="31.9337" fill="#84DBE0"/>
<circle opacity="0.3" cx="307.934" cy="237.47" r="31.9337" fill="#8487E0"/>
<circle opacity="0.8" cx="775" cy="237" r="19" fill="#84E0A9"/>
<circle opacity="0.8" cx="541.613" cy="237" r="19" fill="#84DBE0"/>
<circle opacity="0.8" cx="307.613" cy="237" r="19" fill="#8487E0"/>
<rect x="820.779" y="219.812" width="70.6298" height="13.5249" rx="6.76243" fill="#EDEDED"/>
<rect x="820.779" y="242.354" width="104.442" height="13.5249" rx="6.76243" fill="#E1E1E1"/>
<rect x="1031" y="213" width="104" height="11" rx="5.5" fill="#EEEEEE"/>
<rect x="1031" y="268" width="104" height="11" rx="5.5" fill="#EEEEEE"/>
<rect x="1031" y="323" width="104" height="11" rx="5.5" fill="#EEEEEE"/>
<rect x="1031" y="378" width="104" height="11" rx="5.5" fill="#EEEEEE"/>
<rect x="1031" y="433" width="104" height="11" rx="5.5" fill="#EEEEEE"/>
<rect x="1031" y="488" width="104" height="11" rx="5.5" fill="#EEEEEE"/>
<rect opacity="0.6" x="1031" y="231" width="62" height="11" rx="5.5" fill="#EEEEEE"/>
<rect opacity="0.6" x="1031" y="286" width="62" height="11" rx="5.5" fill="#EEEEEE"/>
<rect opacity="0.6" x="1031" y="341" width="62" height="11" rx="5.5" fill="#EEEEEE"/>
<rect opacity="0.6" x="1031" y="396" width="62" height="11" rx="5.5" fill="#EEEEEE"/>
<rect opacity="0.6" x="1031" y="451" width="62" height="11" rx="5.5" fill="#EEEEEE"/>
<rect opacity="0.6" x="1031" y="506" width="62" height="11" rx="5.5" fill="#EEEEEE"/>
<line opacity="0.05" x1="277" y1="415.5" x2="917" y2="415.5" stroke="black"/>
<line opacity="0.05" x1="277" y1="359.5" x2="917" y2="359.5" stroke="black"/>
<line opacity="0.05" x1="277" y1="471.5" x2="917" y2="471.5" stroke="black"/>
<line opacity="0.05" x1="277" y1="527.5" x2="917" y2="527.5" stroke="black"/>
<path d="M277.5 471.5C295 449.833 341.8 414.1 389 444.5C448 482.5 486 485 530 453C574 421 589.5 384 644.5 391.5C699.5 399 770 485.5 843 422C901.4 371.2 914.5 364 916 363" stroke="#4AB8FF" stroke-width="4" stroke-linecap="round" stroke-linejoin="round"/>
<path opacity="0.3" d="M389 444.5C341.8 414.1 295 449.833 277.5 471.5V528H916V363C914.5 364 901.4 371.2 843 422C770 485.5 699.5 399 644.5 391.5C589.5 384 574 421 530 453C486 485 448 482.5 389 444.5Z" fill="url(#paint0_linear)"/>
<circle cx="672" cy="400" r="10" fill="#4AB8FF"/>
<circle opacity="0.4" cx="672" cy="400" r="17" fill="#4AB8FF"/>
<rect x="979" y="207" width="41" height="41" rx="6" fill="#EEEEEE"/>
<rect x="979" y="262" width="41" height="41" rx="6" fill="#EEEEEE"/>
<rect x="979" y="317" width="41" height="41" rx="6" fill="#EEEEEE"/>
<rect x="979" y="372" width="41" height="41" rx="6" fill="#EEEEEE"/>
<rect x="979" y="427" width="41" height="41" rx="6" fill="#EEEEEE"/>
<rect x="979" y="482" width="41" height="41" rx="6" fill="#EEEEEE"/>
<rect x="610" y="594" width="458" height="17" rx="8.5" fill="#EEEEEE"/>
<rect x="610" y="631" width="270" height="17" rx="8.5" fill="#EEEEEE"/>
<rect x="610" y="668" width="356" height="17" rx="8.5" fill="#EEEEEE"/>
<rect x="610" y="705" width="172" height="17" rx="8.5" fill="#EEEEEE"/>
<path d="M360.5 602C360.5 599.791 358.707 597.986 356.503 598.134C346.141 598.832 336.117 602.232 327.444 608.028C317.659 614.566 310.033 623.858 305.529 634.73C301.026 645.603 299.847 657.566 302.143 669.108C304.439 680.65 310.106 691.252 318.427 699.573C326.748 707.894 337.35 713.561 348.892 715.857C360.434 718.153 372.397 716.974 383.27 712.471C394.142 707.967 403.434 700.341 409.972 690.556C415.768 681.883 419.168 671.859 419.866 661.497C420.014 659.293 418.209 657.5 416 657.5H388.725C386.516 657.5 384.759 659.303 384.396 661.482C383.834 664.856 382.56 668.089 380.643 670.959C377.981 674.943 374.197 678.048 369.771 679.881C365.344 681.715 360.473 682.195 355.774 681.26C351.075 680.325 346.758 678.018 343.37 674.63C339.982 671.242 337.675 666.925 336.74 662.226C335.805 657.527 336.285 652.656 338.119 648.229C339.952 643.803 343.057 640.019 347.041 637.357C349.911 635.44 353.144 634.166 356.518 633.604C358.697 633.241 360.5 631.484 360.5 629.275V602Z" fill="#713BDB"/>
<path d="M501.278 602C501.278 599.791 499.485 597.986 497.281 598.134C484.643 598.985 472.566 603.853 462.843 612.08C452.1 621.171 444.927 633.777 442.598 647.657C440.27 661.537 442.937 675.793 450.126 687.892C457.315 699.991 468.56 709.151 481.863 713.743C495.167 718.336 509.667 718.064 522.789 712.976C535.911 707.887 546.805 698.313 553.535 685.952C560.265 673.592 562.395 659.246 559.548 645.463C556.972 632.99 550.469 621.708 541.047 613.242C539.403 611.766 536.879 612.08 535.516 613.819L518.691 635.285C517.328 637.024 517.663 639.519 519.154 641.149C522.083 644.351 524.115 648.301 525.003 652.599C526.162 658.211 525.295 664.052 522.555 669.084C519.814 674.117 515.379 678.015 510.037 680.087C504.694 682.158 498.79 682.269 493.373 680.399C487.957 678.53 483.379 674.8 480.452 669.874C477.525 664.948 476.439 659.144 477.387 653.492C478.335 647.841 481.255 642.709 485.629 639.007C488.979 636.172 493.016 634.317 497.296 633.604C499.476 633.241 501.278 631.484 501.278 629.275V602Z" fill="#95E5B5"/>
<path opacity="0.1" d="M312.436 629.75C310.522 628.645 308.063 629.296 307.089 631.279C301.641 642.376 299.77 654.93 301.795 667.192C304.037 680.774 310.919 693.158 321.269 702.235C331.619 711.311 344.795 716.518 358.553 716.968C372.312 717.419 385.8 713.085 396.721 704.705C407.642 696.325 415.32 684.417 418.446 671.011C421.572 657.605 419.952 643.53 413.864 631.184C407.776 618.838 397.595 608.985 385.056 603.304C373.735 598.174 361.125 596.732 348.996 599.123C346.829 599.55 345.564 601.757 346.136 603.891L353.195 630.236C353.767 632.37 355.963 633.601 358.162 633.388C362.359 632.981 366.615 633.675 370.498 635.434C375.603 637.747 379.748 641.759 382.227 646.785C384.706 651.812 385.365 657.543 384.093 663.001C382.82 668.459 379.694 673.307 375.248 676.719C370.801 680.131 365.309 681.896 359.707 681.713C354.106 681.529 348.741 679.409 344.527 675.714C340.313 672.018 337.511 666.976 336.598 661.446C335.904 657.24 336.335 652.95 337.815 649.001C338.59 646.932 337.969 644.492 336.056 643.387L312.436 629.75Z" fill="#713BDB"/>
<path opacity="0.1" d="M453.214 629.75C451.301 628.645 448.841 629.296 447.868 631.279C442.42 642.376 440.549 654.93 442.573 667.192C444.816 680.774 451.698 693.158 462.047 702.235C472.397 711.311 485.573 716.518 499.332 716.968C513.09 717.419 526.579 713.085 537.5 704.705C548.421 696.325 556.098 684.417 559.224 671.011C562.35 657.605 560.731 643.53 554.642 631.184C548.554 618.838 538.373 608.985 525.835 603.304C514.514 598.174 501.904 596.732 489.775 599.123C487.607 599.55 486.342 601.757 486.914 603.891L493.973 630.236C494.545 632.37 496.741 633.601 498.94 633.388C503.137 632.981 507.393 633.675 511.277 635.434C516.382 637.747 520.527 641.759 523.006 646.785C525.485 651.812 526.144 657.543 524.871 663.001C523.598 668.459 520.472 673.307 516.026 676.719C511.58 680.131 506.088 681.896 500.486 681.713C494.884 681.529 489.519 679.409 485.306 675.714C481.092 672.018 478.29 666.976 477.377 661.446C476.682 657.24 477.113 652.95 478.593 649.001C479.368 646.932 478.748 644.492 476.835 643.387L453.214 629.75Z" fill="#95E5B5"/>
<g filter="url(#filter2_d)">
<rect x="122" y="94" width="238" height="316" rx="20" fill="white"/>
</g>
<g filter="url(#filter3_d)">
<rect x="1085" y="428" width="238" height="238" rx="20" fill="white"/>
</g>
<rect opacity="0.5" x="142" y="69" width="198" height="278" rx="20" fill="white"/>
<path d="M315.788 188.159C319.856 187.269 322.465 183.236 321.216 179.263C316.984 165.801 309.433 153.572 299.21 143.73C287.169 132.139 271.963 124.379 255.512 121.431C239.062 118.483 222.106 120.479 206.791 127.167C191.475 133.855 178.486 144.935 169.467 159.005C160.448 173.075 155.804 189.504 156.121 206.213C156.439 222.923 161.705 239.163 171.252 252.879C180.8 266.596 194.201 277.174 209.76 283.275C222.972 288.455 237.237 290.21 251.236 288.435C255.367 287.911 257.943 283.856 257.053 279.788C256.163 275.72 252.143 273.187 248.002 273.631C236.932 274.817 225.699 273.326 215.265 269.235C202.482 264.223 191.473 255.533 183.63 244.264C175.786 232.995 171.46 219.654 171.199 205.926C170.938 192.199 174.753 178.702 182.163 167.143C189.572 155.584 200.243 146.482 212.825 140.988C225.408 135.493 239.337 133.853 252.852 136.275C266.367 138.697 278.859 145.072 288.751 154.594C296.825 162.367 302.87 171.952 306.414 182.506C307.74 186.454 311.72 189.049 315.788 188.159Z" fill="#AA89E9"/>
<path d="M264.384 277.8C265.671 281.761 269.942 283.96 273.772 282.325C288.834 275.898 301.759 265.206 310.905 251.492C320.052 237.778 324.956 221.737 325.103 205.362C325.14 201.198 321.469 198.1 317.318 198.434C313.167 198.768 310.116 202.41 309.998 206.572C309.63 219.557 305.622 232.234 298.359 243.124C291.096 254.015 280.932 262.586 269.086 267.915C265.288 269.623 263.098 273.84 264.384 277.8Z" fill="#3BBEDB" fill-opacity="0.6"/>
<rect x="175" y="327" width="117" height="19" rx="9.5" fill="#E1E1E1"/>
<rect opacity="0.5" x="175" y="357" width="162" height="19" rx="9.5" fill="#E1E1E1"/>
<circle cx="157.5" cy="336.5" r="9.5" fill="#89D8E9"/>
<circle cx="157.5" cy="366.5" r="9.5" fill="#AA89E9"/>
<rect x="1108" y="451" width="48" height="48" rx="6" fill="#EEEEEE"/>
<path d="M1176 493C1179.84 485.755 1190.71 472.647 1203.47 478.18C1219.42 485.096 1231.39 490.53 1243.35 478.18C1255.31 465.83 1265.95 453.48 1285 457.926" stroke="#4AB8FF" stroke-width="3" stroke-linecap="round" stroke-linejoin="round"/>
<defs>
<filter id="filter0_d" x="-2" y="0" width="1445" height="1059" filterUnits="userSpaceOnUse" color-interpolation-filters="sRGB">
<feFlood flood-opacity="0" result="BackgroundImageFix"/>
<feColorMatrix in="SourceAlpha" type="matrix" values="0 0 0 0 0 0 0 0 0 0 0 0 0 0 0 0 0 0 127 0"/>
<feOffset dy="60"/>
<feGaussianBlur stdDeviation="100"/>
<feColorMatrix type="matrix" values="0 0 0 0 0 0 0 0 0 0 0 0 0 0 0 0 0 0 0.02 0"/>
<feBlend mode="normal" in2="BackgroundImageFix" result="effect1_dropShadow"/>
<feBlend mode="normal" in="SourceGraphic" in2="effect1_dropShadow" result="shape"/>
</filter>
<filter id="filter1_f" x="211" y="156" width="1019" height="627" filterUnits="userSpaceOnUse" color-interpolation-filters="sRGB">
<feFlood flood-opacity="0" result="BackgroundImageFix"/>
<feBlend mode="normal" in="SourceGraphic" in2="BackgroundImageFix" result="shape"/>
<feGaussianBlur stdDeviation="5" result="effect1_foregroundBlur"/>
</filter>
<filter id="filter2_d" x="32" y="39" width="418" height="496" filterUnits="userSpaceOnUse" color-interpolation-filters="sRGB">
<feFlood flood-opacity="0" result="BackgroundImageFix"/>
<feColorMatrix in="SourceAlpha" type="matrix" values="0 0 0 0 0 0 0 0 0 0 0 0 0 0 0 0 0 0 127 0"/>
<feOffset dy="35"/>
<feGaussianBlur stdDeviation="45"/>
<feColorMatrix type="matrix" values="0 0 0 0 0 0 0 0 0 0 0 0 0 0 0 0 0 0 0.04 0"/>
<feBlend mode="normal" in2="BackgroundImageFix" result="effect1_dropShadow"/>
<feBlend mode="normal" in="SourceGraphic" in2="effect1_dropShadow" result="shape"/>
</filter>
<filter id="filter3_d" x="995" y="373" width="418" height="418" filterUnits="userSpaceOnUse" color-interpolation-filters="sRGB">
<feFlood flood-opacity="0" result="BackgroundImageFix"/>
<feColorMatrix in="SourceAlpha" type="matrix" values="0 0 0 0 0 0 0 0 0 0 0 0 0 0 0 0 0 0 127 0"/>
<feOffset dy="35"/>
<feGaussianBlur stdDeviation="45"/>
<feColorMatrix type="matrix" values="0 0 0 0 0 0 0 0 0 0 0 0 0 0 0 0 0 0 0.04 0"/>
<feBlend mode="normal" in2="BackgroundImageFix" result="effect1_dropShadow"/>
<feBlend mode="normal" in="SourceGraphic" in2="effect1_dropShadow" result="shape"/>
</filter>
<linearGradient id="paint0_linear" x1="596.75" y1="363" x2="596.75" y2="528" gradientUnits="userSpaceOnUse">
<stop stop-color="#4AB8FF" stop-opacity="0.6"/>
<stop offset="1" stop-color="#4AB8FF" stop-opacity="0"/>
</linearGradient>
</defs>
</svg>
