<svg width="409" height="443" viewBox="0 0 409 443" fill="none" xmlns="http://www.w3.org/2000/svg">
<rect y="83" width="255" height="338" rx="20" fill="white"/>
<path d="M202.788 180.159C206.856 179.27 209.465 175.236 208.216 171.263C203.984 157.801 196.433 145.573 186.21 135.73C174.169 124.14 158.963 116.38 142.512 113.431C126.062 110.483 109.106 112.479 93.7906 119.168C78.4746 125.856 65.4859 136.935 56.4668 151.005C47.4478 165.075 42.8036 181.504 43.1214 198.213C43.4392 214.923 48.7049 231.163 58.2524 244.88C67.8 258.597 81.2007 269.174 96.7599 275.275C109.972 280.455 124.237 282.21 138.236 280.435C142.367 279.911 144.943 275.856 144.053 271.788V271.788C143.163 267.72 139.143 265.187 135.002 265.631C123.932 266.817 112.699 265.326 102.265 261.235C89.4825 256.223 78.4734 247.533 70.6297 236.264C62.7861 224.996 58.4602 211.654 58.1991 197.926C57.938 184.199 61.7534 170.703 69.1628 159.144C76.5723 147.585 87.2429 138.482 99.8255 132.988C112.408 127.493 126.337 125.853 139.852 128.275C153.367 130.697 165.859 137.072 175.751 146.595C183.825 154.367 189.87 163.952 193.414 174.507C194.74 178.454 198.72 181.049 202.788 180.159V180.159Z" fill="#AA89E9"/>
<path d="M151.384 269.8C152.671 273.761 156.942 275.96 160.772 274.325C175.834 267.898 188.759 257.206 197.905 243.492C207.052 229.778 211.956 213.737 212.103 197.362C212.14 193.198 208.469 190.099 204.318 190.433V190.433C200.167 190.767 197.116 194.41 196.998 198.572C196.63 211.557 192.622 224.234 185.359 235.124C178.096 246.015 167.932 254.586 156.086 259.915C152.288 261.623 150.098 265.84 151.384 269.8V269.8Z" fill="#3BBEDB" fill-opacity="0.6"/>
<rect x="60" y="330" width="117" height="19" rx="9.5" fill="#E1E1E1"/>
<rect opacity="0.5" x="60" y="360" width="162" height="19" rx="9.5" fill="#E1E1E1"/>
<circle cx="42.5" cy="339.5" r="9.5" fill="#89D8E9"/>
<circle cx="42.5" cy="369.5" r="9.5" fill="#AA89E9"/>
<g filter="url(#filter0_d)">
<rect x="182" y="20" width="187" height="187" rx="20" fill="white"/>
</g>
<rect x="166" y="340" width="214.144" height="102.939" rx="10" fill="white"/>
<rect x="259.923" y="373.812" width="70.6298" height="13.5249" rx="6.76243" fill="#EDEDED"/>
<rect x="259.923" y="396.354" width="104.442" height="13.5249" rx="6.76243" fill="#E1E1E1"/>
<circle opacity="0.3" cx="214.033" cy="391.47" r="31.9337" fill="#84DBE0"/>
<circle opacity="0.8" cx="213.713" cy="391" r="19" fill="#84DBE0"/>
<path d="M275.278 57.7783C275.278 55.5692 273.485 53.7643 271.281 53.9127C258.643 54.7633 246.566 59.6309 236.843 67.8585C226.1 76.9498 218.927 89.5551 216.598 103.435C214.27 117.315 216.937 131.571 224.126 143.67C231.315 155.77 242.56 164.929 255.863 169.521C269.167 174.114 283.667 173.842 296.789 168.754C309.911 163.666 320.805 154.091 327.535 141.731C334.265 129.37 336.395 115.024 333.548 101.241C330.972 88.7681 324.469 77.4868 315.047 69.0206C313.403 67.5441 310.879 67.8586 309.516 69.5973L292.691 91.0636C291.328 92.8023 291.663 95.2975 293.154 96.9276C296.083 100.13 298.115 104.08 299.003 108.378C300.162 113.989 299.295 119.83 296.555 124.863C293.814 129.895 289.379 133.794 284.037 135.865C278.694 137.937 272.79 138.048 267.373 136.178C261.957 134.308 257.379 130.579 254.452 125.652C251.525 120.726 250.439 114.922 251.387 109.271C252.335 103.619 255.255 98.4872 259.629 94.7856C262.979 91.9508 267.016 90.0957 271.296 89.3823C273.476 89.0192 275.278 87.262 275.278 85.0529L275.278 57.7783Z" fill="#95E5B5"/>
<path opacity="0.1" d="M227.214 85.5286C225.301 84.424 222.841 85.0744 221.868 87.0574C216.42 98.1545 214.549 110.708 216.573 122.971C218.816 136.553 225.698 148.937 236.047 158.013C246.397 167.089 259.573 172.296 273.332 172.747C287.09 173.197 300.579 168.863 311.5 160.483C322.421 152.103 330.098 140.196 333.224 126.79C336.35 113.384 334.731 99.3085 328.642 86.9624C322.554 74.6164 312.373 64.7634 299.835 59.0822C288.514 53.9529 275.904 52.5108 263.775 54.9013C261.607 55.3284 260.342 57.5359 260.914 59.6697L267.973 86.0149C268.545 88.1488 270.741 89.3795 272.94 89.1663C277.137 88.7592 281.393 89.4531 285.277 91.2126C290.382 93.5256 294.527 97.5373 297.006 102.564C299.485 107.591 300.144 113.321 298.871 118.78C297.598 124.238 294.472 129.086 290.026 132.498C285.58 135.91 280.088 137.674 274.486 137.491C268.884 137.308 263.519 135.188 259.306 131.492C255.092 127.797 252.29 122.755 251.377 117.225C250.682 113.019 251.113 108.728 252.593 104.779C253.368 102.71 252.748 100.27 250.835 99.1659L227.214 85.5286Z" fill="#95E5B5"/>
<defs>
<filter id="filter0_d" x="142" y="0" width="267" height="267" filterUnits="userSpaceOnUse" color-interpolation-filters="sRGB">
<feFlood flood-opacity="0" result="BackgroundImageFix"/>
<feColorMatrix in="SourceAlpha" type="matrix" values="0 0 0 0 0 0 0 0 0 0 0 0 0 0 0 0 0 0 127 0"/>
<feOffset dy="20"/>
<feGaussianBlur stdDeviation="20"/>
<feColorMatrix type="matrix" values="0 0 0 0 0 0 0 0 0 0 0 0 0 0 0 0 0 0 0.04 0"/>
<feBlend mode="normal" in2="BackgroundImageFix" result="effect1_dropShadow"/>
<feBlend mode="normal" in="SourceGraphic" in2="effect1_dropShadow" result="shape"/>
</filter>
</defs>
</svg>
