<svg width="29" height="29" viewBox="0 0 29 29" fill="none" xmlns="http://www.w3.org/2000/svg">
<path d="M14.5 10.7251C12.4213 10.7251 10.7249 12.4214 10.7249 14.5002C10.7249 16.5789 12.4213 18.2753 14.5 18.2753C16.5787 18.2753 18.2751 16.5789 18.2751 14.5002C18.2751 12.4214 16.5787 10.7251 14.5 10.7251ZM25.8225 14.5002C25.8225 12.9369 25.8366 11.3878 25.7488 9.82731C25.661 8.01481 25.2476 6.40621 23.9222 5.08082C22.594 3.7526 20.9882 3.34196 19.1757 3.25416C17.6124 3.16637 16.0633 3.18053 14.5028 3.18053C12.9396 3.18053 11.3904 3.16637 9.82999 3.25416C8.01749 3.34196 6.4089 3.75543 5.08351 5.08082C3.75529 6.40905 3.34464 8.01481 3.25685 9.82731C3.16906 11.3906 3.18322 12.9397 3.18322 14.5002C3.18322 16.0606 3.16906 17.6126 3.25685 19.173C3.34464 20.9855 3.75812 22.5941 5.08351 23.9195C6.41173 25.2477 8.01749 25.6584 9.82999 25.7462C11.3933 25.834 12.9424 25.8198 14.5028 25.8198C16.0661 25.8198 17.6152 25.834 19.1757 25.7462C20.9882 25.6584 22.5968 25.2449 23.9222 23.9195C25.2504 22.5913 25.661 20.9855 25.7488 19.173C25.8395 17.6126 25.8225 16.0634 25.8225 14.5002ZM14.5 20.3087C11.2857 20.3087 8.69152 17.7145 8.69152 14.5002C8.69152 11.2858 11.2857 8.69166 14.5 8.69166C17.7144 8.69166 20.3085 11.2858 20.3085 14.5002C20.3085 17.7145 17.7144 20.3087 14.5 20.3087ZM20.5464 9.81032C19.7959 9.81032 19.1899 9.20426 19.1899 8.45377C19.1899 7.70328 19.7959 7.09723 20.5464 7.09723C21.2969 7.09723 21.9029 7.70328 21.9029 8.45377C21.9032 8.63198 21.8682 8.80848 21.8001 8.97316C21.732 9.13785 21.6321 9.28748 21.5061 9.41349C21.3801 9.5395 21.2305 9.63942 21.0658 9.70751C20.9011 9.7756 20.7246 9.81054 20.5464 9.81032Z" fill="white"/>
</svg>
