<svg xmlns="http://www.w3.org/2000/svg" width="50" height="50" fill="none" viewBox="0 0 50 50"><path fill="#713BDB" fill-rule="evenodd" d="M48.1 21.5L45.9 19.3C45.05 18.45 43.7 18.45 42.85 19.3L37.5 24.65V4.89995C37.5 4.24995 36.95 3.69995 36.3 3.69995H2.45C1.8 3.69995 1.25 4.24995 1.25 4.89995V45.0499C1.25 45.7 1.8 46.25 2.45 46.25H36.3C36.95 46.25 37.5 45.7 37.5 45.0499V35.15L48.1 24.5499C48.95 23.6999 48.95 22.35 48.1 21.5ZM31.4 37.9L28.85 38.5999L29.55 36.0499L30 35.5999L31.85 37.45L31.4 37.9ZM33.55 35.7L31.7 33.8499L41.1 24.5L42.95 26.35L33.55 35.7ZM35.1 43.9H3.65V6.09995H35.1V27.0499L27.8 34.4C27.55 34.65 27.35 34.9999 27.25 35.3499L26.4 38.5499C26.2 39.25 26.4 40 26.95 40.5499C27.35 40.95 27.85 41.15 28.4 41.15C28.6 41.15 28.75 41.1499 28.95 41.0999L32.1 40.25C32.45 40.15 32.8 39.95 33.05 39.7L35.15 37.5999V43.9H35.1ZM44.65 24.65L42.8 22.7999L44.4 21.2L46.25 23.0499L44.65 24.65Z" clip-rule="evenodd"/><path fill="#713BDB" fill-rule="evenodd" d="M14.7 15.15H28.5C29.15 15.15 29.7 14.6 29.7 13.95C29.7 13.3 29.15 12.75 28.5 12.75H14.7C14.05 12.75 13.5 13.3 13.5 13.95C13.5 14.6 14 15.15 14.7 15.15Z" clip-rule="evenodd"/><path fill="#713BDB" fill-rule="evenodd" d="M14.7 22.4999H28.5C29.15 22.4999 29.7 21.9499 29.7 21.2999C29.7 20.6499 29.15 20.0999 28.5 20.0999H14.7C14.05 20.0999 13.5 20.6499 13.5 21.2999C13.5 21.9999 14 22.4999 14.7 22.4999Z" clip-rule="evenodd"/><path fill="#713BDB" fill-rule="evenodd" d="M14.7 29.9H28.5C29.15 29.9 29.7 29.35 29.7 28.7C29.7 28.05 29.1 27.5 28.45 27.5H14.7C14 27.5 13.5 28 13.5 28.7C13.5 29.4 14 29.9 14.7 29.9Z" clip-rule="evenodd"/><path fill="#713BDB" fill-rule="evenodd" d="M22.2 34.8499H14.7C14.05 34.8499 13.5 35.3999 13.5 36.0499C13.5 36.6999 14.05 37.2499 14.7 37.2499H22.2C22.85 37.2499 23.4 36.6999 23.4 36.0499C23.4 35.3999 22.85 34.8499 22.2 34.8499Z" clip-rule="evenodd"/><path fill="#713BDB" d="M9.44998 15.7999C10.4717 15.7999 11.3 14.9716 11.3 13.9499C11.3 12.9281 10.4717 12.0999 9.44998 12.0999C8.42825 12.0999 7.59998 12.9281 7.59998 13.9499C7.59998 14.9716 8.42825 15.7999 9.44998 15.7999Z"/><path fill="#713BDB" d="M9.44998 23.15C10.4717 23.15 11.3 22.3217 11.3 21.2999C11.3 20.2782 10.4717 19.45 9.44998 19.45C8.42825 19.45 7.59998 20.2782 7.59998 21.2999C7.59998 22.3217 8.42825 23.15 9.44998 23.15Z"/><path fill="#713BDB" d="M9.44998 30.5499C10.4717 30.5499 11.3 29.7216 11.3 28.6999C11.3 27.6781 10.4717 26.8499 9.44998 26.8499C8.42825 26.8499 7.59998 27.6781 7.59998 28.6999C7.59998 29.7216 8.42825 30.5499 9.44998 30.5499Z"/><path fill="#713BDB" d="M9.44998 37.9C10.4717 37.9 11.3 37.0717 11.3 36.05C11.3 35.0282 10.4717 34.2 9.44998 34.2C8.42825 34.2 7.59998 35.0282 7.59998 36.05C7.59998 37.0717 8.42825 37.9 9.44998 37.9Z"/></svg>