<svg xmlns="http://www.w3.org/2000/svg" width="570" height="570" fill="none" viewBox="0 0 570 570"><circle cx="285" cy="285" r="285" fill="#7C91F0" fill-opacity=".1"/><rect width="289.865" height="279.482" x="95.573" y="133.658" fill="url(#paint0_linear)" rx="30"/><rect width="169.593" height="252.659" x="134.51" y="110.296" fill="url(#paint1_linear)" rx="15"/><rect width="218.913" height="27.689" x="157.007" y="346.515" fill="#fff" opacity=".3" rx="13.844" transform="rotate(-90 157.007 346.515)"/><rect width="91.719" height="15.575" x="266.031" y="346.515" fill="#fff" opacity=".3" rx="7.787" transform="rotate(-90 266.031 346.515)"/><rect width="169.593" height="252.659" x="219.307" y="127.602" fill="url(#paint2_linear)" rx="15"/><rect width="218.913" height="27.689" x="241.804" y="363.821" fill="#fff" opacity=".3" rx="13.844" transform="rotate(-90 241.804 363.821)"/><rect width="91.719" height="15.575" x="350.828" y="363.821" fill="#fff" opacity=".3" rx="7.787" transform="rotate(-90 350.828 363.821)"/><rect width="379.854" height="279.482" x="95.573" y="179.518" fill="url(#paint3_linear)" rx="30"/><path fill="#6B65CD" d="M374.19 320.99C374.19 297.813 392.979 279.024 416.156 279.024H475.427V362.955H416.156C392.979 362.955 374.19 344.166 374.19 320.99Z"/><circle cx="413.127" cy="321.422" r="27.689" fill="#5C58AB"/><rect width="149" height="75" x="49" y="241" fill="#fff" rx="15"/><path fill="#67BCA3" d="M160.414 280.414C161.195 279.633 161.195 278.367 160.414 277.586L147.686 264.858C146.905 264.077 145.639 264.077 144.858 264.858C144.077 265.639 144.077 266.905 144.858 267.686L156.172 279L144.858 290.314C144.077 291.095 144.077 292.361 144.858 293.142C145.639 293.923 146.905 293.923 147.686 293.142L160.414 280.414ZM89 281H159V277H89V281Z"/><defs><linearGradient id="paint0_linear" x1="125.616" x2="432.984" y1="116.353" y2="360.235" gradientUnits="userSpaceOnUse"><stop stop-color="#3377B6"/><stop offset="1" stop-color="#9079D2"/></linearGradient><linearGradient id="paint1_linear" x1="325.735" x2="116.772" y1="87.367" y2="400.162" gradientUnits="userSpaceOnUse"><stop stop-color="#A746D5"/><stop offset="1" stop-color="#E69851"/></linearGradient><linearGradient id="paint2_linear" x1="410.532" x2="201.569" y1="104.672" y2="417.467" gradientUnits="userSpaceOnUse"><stop stop-color="#46A1D5"/><stop offset="1" stop-color="#9BE651"/></linearGradient><linearGradient id="paint3_linear" x1="134.943" x2="450.334" y1="162.212" y2="490.15" gradientUnits="userSpaceOnUse"><stop stop-color="#3B8EDB"/><stop offset="1" stop-color="#AF93FF"/></linearGradient></defs></svg>