<svg width="570" height="570" viewBox="0 0 570 570" fill="none" xmlns="http://www.w3.org/2000/svg">
<circle cx="285" cy="285" r="285" fill="#7C91F0" fill-opacity="0.1"/>
<rect x="95.5732" y="133.658" width="289.865" height="279.482" rx="30" fill="url(#paint0_linear)"/>
<rect x="134.51" y="110.296" width="169.593" height="252.659" rx="15" fill="url(#paint1_linear)"/>
<rect opacity="0.3" x="157.007" y="346.515" width="218.913" height="27.6886" rx="13.8443" transform="rotate(-90 157.007 346.515)" fill="white"/>
<rect opacity="0.3" x="266.031" y="346.515" width="91.7186" height="15.5749" rx="7.78743" transform="rotate(-90 266.031 346.515)" fill="white"/>
<rect x="219.307" y="127.602" width="169.593" height="252.659" rx="15" fill="url(#paint2_linear)"/>
<rect opacity="0.3" x="241.804" y="363.821" width="218.913" height="27.6886" rx="13.8443" transform="rotate(-90 241.804 363.821)" fill="white"/>
<rect opacity="0.3" x="350.828" y="363.821" width="91.7186" height="15.5749" rx="7.78743" transform="rotate(-90 350.828 363.821)" fill="white"/>
<rect x="95.5732" y="179.518" width="379.854" height="279.482" rx="30" fill="url(#paint3_linear)"/>
<path d="M374.19 320.99C374.19 297.813 392.979 279.024 416.156 279.024H475.427V362.955H416.156C392.979 362.955 374.19 344.166 374.19 320.99Z" fill="#6B65CD"/>
<circle cx="413.127" cy="321.422" r="27.6886" fill="#5C58AB"/>
<rect x="49" y="241" width="149" height="75" rx="15" fill="white"/>
<path d="M160.414 280.414C161.195 279.633 161.195 278.367 160.414 277.586L147.686 264.858C146.905 264.077 145.639 264.077 144.858 264.858C144.077 265.639 144.077 266.905 144.858 267.686L156.172 279L144.858 290.314C144.077 291.095 144.077 292.361 144.858 293.142C145.639 293.923 146.905 293.923 147.686 293.142L160.414 280.414ZM89 281H159V277H89V281Z" fill="#67BCA3"/>
<defs>
<linearGradient id="paint0_linear" x1="125.616" y1="116.353" x2="432.984" y2="360.235" gradientUnits="userSpaceOnUse">
<stop stop-color="#3377B6"/>
<stop offset="1" stop-color="#9079D2"/>
</linearGradient>
<linearGradient id="paint1_linear" x1="325.735" y1="87.3667" x2="116.772" y2="400.162" gradientUnits="userSpaceOnUse">
<stop stop-color="#A746D5"/>
<stop offset="1" stop-color="#E69851"/>
</linearGradient>
<linearGradient id="paint2_linear" x1="410.532" y1="104.672" x2="201.569" y2="417.467" gradientUnits="userSpaceOnUse">
<stop stop-color="#46A1D5"/>
<stop offset="1" stop-color="#9BE651"/>
</linearGradient>
<linearGradient id="paint3_linear" x1="134.943" y1="162.212" x2="450.334" y2="490.15" gradientUnits="userSpaceOnUse">
<stop stop-color="#3B8EDB"/>
<stop offset="1" stop-color="#AF93FF"/>
</linearGradient>
</defs>
</svg>
