<svg width="1440" height="1250" viewBox="0 0 1440 1250" fill="none" xmlns="http://www.w3.org/2000/svg">
<path opacity="0.3" d="M128.833 111.236C17.0981 166.433 -155.472 134.408 -239.131 111.236C-282.127 478.131 -308.342 1222.9 -205.152 1180.59C-76.1648 1127.69 294.191 1118.12 654.156 1224.41C942.128 1309.44 1423.56 1121.95 1523.22 1031.61C1612.04 689.904 1844.31 83.1601 1528.32 134.944C1251.64 180.286 983.44 62.5772 686.76 20.9638C385.808 -21.2489 257.32 47.7642 128.833 111.236Z" fill="#713BDB"/>
<path d="M261.941 103.246C150.176 158.447 -22.44 126.42 -106.121 103.245C-149.128 470.173 -175.35 1211.99 -72.133 1169.67C56.8887 1116.77 471.937 1074.51 820.017 1215.62C1109.58 1333 1351.94 1119.46 1451.62 1029.11C1540.47 687.373 1767.69 103.246 1451.62 155.034C1174.87 200.38 1116.78 54.5822 820.017 12.965C518.984 -29.2515 390.463 39.7679 261.941 103.246Z" fill="#713BDB"/>
</svg>
