<svg width="50" height="50" viewBox="0 0 50 50" fill="none" xmlns="http://www.w3.org/2000/svg">
<g clip-path="url(#clip0)">
<path d="M48.4375 23.625H43.8537C43.1757 14.2831 35.8076 6.79728 26.5625 6.02987V1.575C26.5625 0.705212 25.8636 0 25 0C24.1364 0 23.4375 0.705212 23.4375 1.575V6.02987C14.1924 6.79728 6.8243 14.2831 6.14634 23.625H1.5625C0.698853 23.625 0 24.3302 0 25.2C0 26.0698 0.698853 26.775 1.5625 26.775H6.16398C6.99739 35.9553 14.3074 43.2624 23.4375 44.0202V48.825C23.4375 49.6948 24.1364 50.4 25 50.4C25.8636 50.4 26.5625 49.6948 26.5625 48.825V44.0202C35.6926 43.2624 43.0026 35.9553 43.836 26.775H48.4375C49.3011 26.775 50 26.0698 50 25.2C50 24.3302 49.3011 23.625 48.4375 23.625ZM26.5625 40.8702V36.225C26.5625 35.3552 25.8636 34.65 25 34.65C24.1364 34.65 23.4375 35.3552 23.4375 36.225V40.8702C16.0299 40.1335 10.1134 34.2181 9.30166 26.775H14.0625C14.9261 26.775 15.625 26.0698 15.625 25.2C15.625 24.3302 14.9261 23.625 14.0625 23.625H9.27143C9.93299 16.0183 15.9142 9.92806 23.4375 9.17987V14.175C23.4375 15.0448 24.1364 15.75 25 15.75C25.8636 15.75 26.5625 15.0448 26.5625 14.175V9.17987C34.0858 9.92806 40.067 16.0183 40.7286 23.625H35.9375C35.0739 23.625 34.375 24.3302 34.375 25.2C34.375 26.0698 35.0739 26.775 35.9375 26.775H40.6983C39.8866 34.2181 33.9701 40.1335 26.5625 40.8702Z" fill="#713BDB"/>
</g>
<defs>
<clipPath id="clip0">
<rect width="50" height="50" fill="white"/>
</clipPath>
</defs>
</svg>
