<svg width="37" height="38" viewBox="0 0 37 38" fill="none" xmlns="http://www.w3.org/2000/svg">
<path d="M18.5 0.59375C8.59903 0.59375 0.578125 8.83262 0.578125 19C0.578125 29.1674 8.60019 37.4062 18.5 37.4062C28.401 37.4062 36.4219 29.1674 36.4219 19C36.4219 8.83262 28.3998 0.59375 18.5 0.59375ZM27.3025 13.2038L24.361 27.4396C24.1437 28.4489 23.5586 28.6936 22.7423 28.2186L18.2618 24.8271L16.1008 26.9646C15.8626 27.2092 15.6602 27.417 15.1978 27.417L15.5157 22.7335L23.8188 15.029C24.1807 14.7024 23.739 14.5172 23.2614 14.8438L12.9997 21.4783L8.57706 20.0604C7.61622 19.7493 7.59425 19.0736 8.77941 18.5986L26.0584 11.7551C26.8608 11.4582 27.5615 11.9558 27.3014 13.2026L27.3025 13.2038Z" fill="#713BDB"/>
</svg>
