<svg width="56" height="56" viewBox="0 0 56 56" fill="none" xmlns="http://www.w3.org/2000/svg">
<path opacity="0.5" fill-rule="evenodd" clip-rule="evenodd" d="M11.3902 16.3907C9.95016 18.463 10.4627 21.3102 12.5349 22.7502L21.4214 28.9256L15.246 37.8122C13.806 39.8844 14.3185 42.7316 16.3907 44.1717C18.463 45.6117 21.3102 45.0992 22.7502 43.027L28.9256 34.1404L37.8122 40.3158C39.8844 41.7559 42.7316 41.2434 44.1717 39.1711C45.6117 37.0989 45.0992 34.2517 43.027 32.8116L34.1404 26.6362L40.3158 17.7497C41.7558 15.6774 41.2433 12.8302 39.1711 11.3902C37.0989 9.95016 34.2517 10.4627 32.8116 12.5349L26.6362 21.4214L17.7497 15.246C15.6775 13.806 12.8302 14.3185 11.3902 16.3907Z" fill="#713BDB"/>
</svg>
