<svg xmlns="http://www.w3.org/2000/svg" width="55" height="55" fill="none" viewBox="0 0 55 55"><path fill="#713BDB" fill-rule="evenodd" d="M37.8418 10.4041C35.6883 9.08876 32.8762 9.76822 31.5608 11.9217L25.9201 21.1569L16.6849 15.5161C14.5314 14.2007 11.7193 14.8802 10.404 17.0337C9.08862 19.1872 9.76808 21.9993 11.9216 23.3146L21.1567 28.9554L15.5159 38.1906C14.2006 40.3441 14.88 43.1562 17.0335 44.4715C19.187 45.7869 21.9991 45.1074 23.3145 42.9539L28.9553 33.7188L38.1904 39.3596C40.3439 40.6749 43.156 39.9955 44.4714 37.8419C45.7867 35.6884 45.1073 32.8764 42.9538 31.561L33.7186 25.9202L39.3594 16.6851C40.6748 14.5316 39.9953 11.7195 37.8418 10.4041Z" clip-rule="evenodd" opacity=".3"/></svg>