<svg width="55" height="56" viewBox="0 0 55 56" fill="none" xmlns="http://www.w3.org/2000/svg">
<path opacity="0.3" fill-rule="evenodd" clip-rule="evenodd" d="M37.8419 10.7955C35.6884 9.48013 32.8763 10.1596 31.561 12.3131L25.9202 21.5482L16.6851 15.9075C14.5315 14.5921 11.7195 15.2716 10.4041 17.4251C9.08874 19.5786 9.7682 22.3907 11.9217 23.706L21.1568 29.3468L15.516 38.5819C14.2007 40.7355 14.8801 43.5475 17.0337 44.8629C19.1872 46.1782 21.9992 45.4988 23.3146 43.3453L28.9554 34.1101L38.1906 39.7509C40.3441 41.0663 43.1561 40.3868 44.4715 38.2333C45.7869 36.0798 45.1074 33.2677 42.9539 31.9524L33.7187 26.3116L39.3595 17.0764C40.6749 14.9229 39.9954 12.1109 37.8419 10.7955Z" fill="#713BDB"/>
</svg>
