<svg width="63" height="102" viewBox="0 0 63 102" fill="none" xmlns="http://www.w3.org/2000/svg">
<path opacity="0.3" fill-rule="evenodd" clip-rule="evenodd" d="M69.9628 19.2353C65.9814 16.8034 60.7823 18.0596 58.3505 22.0411L47.9216 39.1153L30.8476 28.6866C26.8661 26.2548 21.6671 27.511 19.2352 31.4924C16.8034 35.4739 18.0596 40.6729 22.041 43.1048L39.115 53.5335L28.6863 70.6075C26.2544 74.589 27.5106 79.788 31.492 82.2198C35.4735 84.6517 40.6725 83.3955 43.1044 79.4141L53.5332 62.34L70.6075 72.769C74.5889 75.2008 79.7879 73.9446 82.2198 69.9632C84.6517 65.9817 83.3955 60.7827 79.414 58.3508L62.3397 47.9219L72.7686 30.8476C75.2005 26.8662 73.9443 21.6671 69.9628 19.2353Z" fill="#713BDB"/>
</svg>
