<svg width="55" height="55" viewBox="0 0 55 55" fill="none" xmlns="http://www.w3.org/2000/svg">
<path opacity="0.3" fill-rule="evenodd" clip-rule="evenodd" d="M37.8419 10.4041C35.6884 9.08876 32.8763 9.76822 31.561 11.9217L25.9202 21.1569L16.6851 15.5161C14.5315 14.2007 11.7195 14.8802 10.4041 17.0337C9.08874 19.1872 9.7682 21.9993 11.9217 23.3146L21.1568 28.9554L15.516 38.1906C14.2007 40.3441 14.8801 43.1562 17.0337 44.4715C19.1872 45.7869 21.9992 45.1074 23.3146 42.9539L28.9554 33.7188L38.1906 39.3596C40.3441 40.6749 43.1561 39.9955 44.4715 37.8419C45.7869 35.6884 45.1074 32.8764 42.9539 31.561L33.7187 25.9202L39.3595 16.6851C40.6749 14.5316 39.9954 11.7195 37.8419 10.4041Z" fill="#713BDB"/>
</svg>
