<svg xmlns="http://www.w3.org/2000/svg" width="727" height="705" fill="none" viewBox="0 0 727 705"><circle cx="615.5" cy="151.5" r="111.5" fill="#804DE9" opacity=".1"/><circle cx="57" cy="112" r="54" fill="#804DE9" opacity=".05"/><circle cx="111" cy="66" r="54" fill="#804DE9" opacity=".05"/><circle cx="633" cy="475" r="54" fill="#804DE9" opacity=".05"/><rect width="617" height="387" x="44" y="99" fill="#fff" rx="20"/><rect width="529" height="455" x="88" y="65" fill="#fff" opacity=".5" rx="20"/><g filter="url(#filter0_d)"><rect width="215" height="215" x="244.528" y="184.528" fill="url(#paint0_linear)" rx="30"/></g><g filter="url(#filter1_d)" opacity=".2"><rect width="215" height="215" x="200" y="292.028" fill="url(#paint1_linear)" rx="30" transform="rotate(-45 200 292.028)"/></g><path fill="#fff" d="M386.028 285.466C390.695 288.16 390.695 294.896 386.028 297.59L339.528 324.437C334.861 327.131 329.028 323.763 329.028 318.375L329.028 264.681C329.028 259.292 334.861 255.925 339.528 258.619L386.028 285.466Z" opacity=".9"/><defs><filter id="filter0_d" width="615" height="615" x="44.528" y="44.528" color-interpolation-filters="sRGB" filterUnits="userSpaceOnUse"><feFlood flood-opacity="0" result="BackgroundImageFix"/><feColorMatrix in="SourceAlpha" type="matrix" values="0 0 0 0 0 0 0 0 0 0 0 0 0 0 0 0 0 0 127 0"/><feOffset dy="60"/><feGaussianBlur stdDeviation="100"/><feColorMatrix type="matrix" values="0 0 0 0 0 0 0 0 0 0 0 0 0 0 0 0 0 0 0.02 0"/><feBlend in2="BackgroundImageFix" mode="normal" result="effect1_dropShadow"/><feBlend in="SourceGraphic" in2="effect1_dropShadow" mode="normal" result="shape"/></filter><filter id="filter1_d" width="704.056" height="704.056" x="0" y="0" color-interpolation-filters="sRGB" filterUnits="userSpaceOnUse"><feFlood flood-opacity="0" result="BackgroundImageFix"/><feColorMatrix in="SourceAlpha" type="matrix" values="0 0 0 0 0 0 0 0 0 0 0 0 0 0 0 0 0 0 127 0"/><feOffset dy="60"/><feGaussianBlur stdDeviation="100"/><feColorMatrix type="matrix" values="0 0 0 0 0 0 0 0 0 0 0 0 0 0 0 0 0 0 0.02 0"/><feBlend in2="BackgroundImageFix" mode="normal" result="effect1_dropShadow"/><feBlend in="SourceGraphic" in2="effect1_dropShadow" mode="normal" result="shape"/></filter><linearGradient id="paint0_linear" x1="352.028" x2="352.028" y1="184.528" y2="399.528" gradientUnits="userSpaceOnUse"><stop stop-color="#713BDB"/><stop offset="1" stop-color="#9869FE"/></linearGradient><linearGradient id="paint1_linear" x1="307.5" x2="307.5" y1="292.028" y2="507.028" gradientUnits="userSpaceOnUse"><stop stop-color="#713BDB"/><stop offset="1" stop-color="#9869FE"/></linearGradient></defs></svg>