<svg xmlns="http://www.w3.org/2000/svg" width="50" height="50" fill="none" viewBox="0 0 50 50"><path fill="#713BDB" d="M37.5 18.2292L44.5834 12.9167C45.9568 11.8867 47.9167 12.8667 47.9167 14.5834V35.4167C47.9167 37.1335 45.9568 38.1135 44.5834 37.0834L37.5 31.7709V33.3334C37.5 36.7852 34.7018 39.5834 31.25 39.5834H8.33337C4.88159 39.5834 2.08337 36.7852 2.08337 33.3334V16.6667C2.08337 13.215 4.88159 10.4167 8.33337 10.4167H31.25C34.7018 10.4167 37.5 13.215 37.5 16.6667V18.2292ZM8.33337 14.5834C7.18278 14.5834 6.25004 15.5162 6.25004 16.6667V33.3334C6.25004 34.484 7.18278 35.4167 8.33337 35.4167H31.25C32.4006 35.4167 33.3334 34.484 33.3334 33.3334V16.6667C33.3334 15.5162 32.4006 14.5834 31.25 14.5834H8.33337ZM37.5 26.5626L43.75 31.2501V18.7501L37.5 23.4376V26.5626Z"/></svg>