<svg width="727" height="705" viewBox="0 0 727 705" fill="none" xmlns="http://www.w3.org/2000/svg">
<circle opacity="0.1" cx="615.5" cy="151.5" r="111.5" fill="#804DE9"/>
<circle opacity="0.05" cx="57" cy="112" r="54" fill="#804DE9"/>
<circle opacity="0.05" cx="111" cy="66" r="54" fill="#804DE9"/>
<circle opacity="0.05" cx="633" cy="475" r="54" fill="#804DE9"/>
<rect x="44" y="99" width="617" height="387" rx="20" fill="white"/>
<rect opacity="0.5" x="88" y="65" width="529" height="455" rx="20" fill="white"/>
<g filter="url(#filter0_d)">
<rect x="244.528" y="184.528" width="215" height="215" rx="30" fill="url(#paint0_linear)"/>
</g>
<g opacity="0.2" filter="url(#filter1_d)">
<rect x="200" y="292.028" width="215" height="215" rx="30" transform="rotate(-45 200 292.028)" fill="url(#paint1_linear)"/>
</g>
<path opacity="0.9" d="M386.028 285.466C390.695 288.16 390.695 294.896 386.028 297.59L339.528 324.437C334.861 327.131 329.028 323.763 329.028 318.375L329.028 264.681C329.028 259.292 334.861 255.925 339.528 258.619L386.028 285.466Z" fill="white"/>
<defs>
<filter id="filter0_d" x="44.528" y="44.5278" width="615" height="615" filterUnits="userSpaceOnUse" color-interpolation-filters="sRGB">
<feFlood flood-opacity="0" result="BackgroundImageFix"/>
<feColorMatrix in="SourceAlpha" type="matrix" values="0 0 0 0 0 0 0 0 0 0 0 0 0 0 0 0 0 0 127 0"/>
<feOffset dy="60"/>
<feGaussianBlur stdDeviation="100"/>
<feColorMatrix type="matrix" values="0 0 0 0 0 0 0 0 0 0 0 0 0 0 0 0 0 0 0.02 0"/>
<feBlend mode="normal" in2="BackgroundImageFix" result="effect1_dropShadow"/>
<feBlend mode="normal" in="SourceGraphic" in2="effect1_dropShadow" result="shape"/>
</filter>
<filter id="filter1_d" x="0" y="0" width="704.056" height="704.056" filterUnits="userSpaceOnUse" color-interpolation-filters="sRGB">
<feFlood flood-opacity="0" result="BackgroundImageFix"/>
<feColorMatrix in="SourceAlpha" type="matrix" values="0 0 0 0 0 0 0 0 0 0 0 0 0 0 0 0 0 0 127 0"/>
<feOffset dy="60"/>
<feGaussianBlur stdDeviation="100"/>
<feColorMatrix type="matrix" values="0 0 0 0 0 0 0 0 0 0 0 0 0 0 0 0 0 0 0.02 0"/>
<feBlend mode="normal" in2="BackgroundImageFix" result="effect1_dropShadow"/>
<feBlend mode="normal" in="SourceGraphic" in2="effect1_dropShadow" result="shape"/>
</filter>
<linearGradient id="paint0_linear" x1="352.028" y1="184.528" x2="352.028" y2="399.528" gradientUnits="userSpaceOnUse">
<stop stop-color="#713BDB"/>
<stop offset="1" stop-color="#9869FE"/>
</linearGradient>
<linearGradient id="paint1_linear" x1="307.5" y1="292.028" x2="307.5" y2="507.028" gradientUnits="userSpaceOnUse">
<stop stop-color="#713BDB"/>
<stop offset="1" stop-color="#9869FE"/>
</linearGradient>
</defs>
</svg>
