<svg xmlns="http://www.w3.org/2000/svg" width="48" height="48" fill="none" viewBox="0 0 48 48"><path fill="#713BDB" fill-rule="evenodd" d="M36.806 11.2661C35.1427 9.59183 33.1637 8.26429 30.9837 7.36036C28.8037 6.45642 26.466 5.99406 24.106 6.00006C14.21 6.00006 6.154 14.0541 6.15 23.9541C6.15 27.1181 6.976 30.2061 8.546 32.9301L6 42.2321L15.518 39.7341C18.1508 41.1672 21.1004 41.9187 24.098 41.9201H24.106C34 41.9201 42.056 33.8661 42.06 23.9661C42.0668 21.607 41.606 19.27 40.7042 17.0902C39.8023 14.9103 38.4774 12.9308 36.806 11.2661ZM24.106 38.8901H24.1C21.427 38.8903 18.8033 38.1712 16.504 36.8081L15.96 36.4841L10.312 37.9661L11.818 32.4601L11.464 31.8961C9.96958 29.5169 9.17847 26.7636 9.182 23.9541C9.186 15.7261 15.88 9.03206 24.112 9.03206C26.0725 9.0277 28.0144 9.41222 29.8253 10.1634C31.6362 10.9145 33.2802 12.0173 34.662 13.4081C36.0512 14.7921 37.1524 16.4378 37.9018 18.2501C38.6512 20.0623 39.034 22.005 39.028 23.9661C39.024 32.1941 32.33 38.8901 24.106 38.8901ZM32.292 27.7121C31.842 27.4861 29.638 26.4021 29.226 26.2521C28.816 26.1021 28.518 26.0281 28.218 26.4761C27.918 26.9241 27.058 27.9341 26.796 28.2341C26.534 28.5341 26.272 28.5701 25.824 28.3461C25.376 28.1221 23.93 27.6481 22.216 26.1201C20.882 24.9301 19.982 23.4621 19.72 23.0121C19.458 22.5621 19.692 22.3201 19.918 22.0961C20.12 21.8961 20.366 21.5721 20.59 21.3101C20.814 21.0481 20.888 20.8621 21.038 20.5621C21.188 20.2621 21.114 20.0001 21 19.7761C20.888 19.5501 19.99 17.3421 19.616 16.4441C19.254 15.5741 18.884 15.6901 18.608 15.6781C18.3222 15.6664 18.0361 15.661 17.75 15.6621C17.5225 15.6679 17.2987 15.7206 17.0925 15.817C16.8864 15.9133 16.7023 16.0512 16.552 16.2221C16.14 16.6721 14.982 17.7561 14.982 19.9641C14.982 22.1721 16.59 24.3061 16.814 24.6061C17.038 24.9061 19.978 29.4361 24.478 31.3801C25.55 31.8421 26.386 32.1181 27.036 32.3261C28.11 32.6681 29.088 32.6181 29.862 32.5041C30.724 32.3761 32.516 31.4201 32.89 30.3721C33.264 29.3241 33.264 28.4261 33.152 28.2381C33.04 28.0501 32.738 27.9361 32.292 27.7121Z" clip-rule="evenodd"/></svg>