<?xml version="1.0" standalone="no"?>
<!DOCTYPE svg PUBLIC "-//W3C//DTD SVG 20010904//EN"
 "http://www.w3.org/TR/2001/REC-SVG-20010904/DTD/svg10.dtd">
<svg version="1.0" xmlns="http://www.w3.org/2000/svg"
 width="700.000000pt" height="700.000000pt" viewBox="0 0 700.000000 700.000000"
 preserveAspectRatio="xMidYMid meet">
<metadata>
Created by potrace 1.11, written by Peter Selinger 2001-2013
</metadata>
<g transform="translate(0.000000,700.000000) scale(0.100000,-0.100000)"
fill="#000000" stroke="none">
<path d="M3428 6518 c-3 -419 -5 -481 -18 -483 -8 -1 -48 -5 -89 -9 -64 -5
-146 -16 -230 -31 -260 -45 -560 -154 -796 -288 -354 -200 -670 -493 -895
-827 -33 -49 -60 -92 -60 -96 0 -4 -6 -15 -14 -23 -27 -30 -154 -295 -200
-418 -50 -133 -108 -346 -126 -463 -6 -41 -13 -86 -16 -100 -5 -33 -17 -159
-18 -187 l0 -23 -483 0 -484 0 3 -137 3 -138 480 0 480 0 1 -30 c2 -49 14
-169 19 -185 2 -8 6 -37 10 -65 14 -110 63 -309 109 -437 139 -387 332 -695
616 -979 80 -80 177 -171 217 -202 68 -54 276 -199 298 -208 6 -2 40 -21 76
-41 89 -51 284 -139 394 -178 100 -35 335 -97 405 -106 25 -3 52 -8 61 -9 59
-11 165 -23 222 -24 l37 -1 0 -415 0 -415 138 0 138 0 0 410 c0 225 2 411 4
414 3 2 39 7 80 10 121 9 181 18 350 52 165 33 456 140 630 232 73 39 100 55
204 117 200 122 471 367 636 575 234 295 403 640 495 1010 24 99 51 266 61
388 4 42 10 79 14 82 5 3 191 5 414 5 l406 -1 0 138 0 138 -415 0 -415 0 -2
53 c0 28 -2 57 -3 62 -1 6 -5 37 -9 70 -126 1001 -814 1835 -1776 2155 -133
44 -234 68 -445 104 -16 3 -68 8 -115 12 -106 8 -104 8 -110 16 -3 3 -5 220
-5 482 l0 476 -137 0 -138 0 -2 -482z m372 -903 c175 -17 409 -75 585 -145
143 -57 398 -198 488 -269 296 -237 483 -455 638 -746 78 -147 163 -372 194
-514 3 -11 7 -31 10 -43 29 -132 48 -310 49 -458 0 -84 -10 -256 -18 -295 -2
-11 -7 -42 -10 -70 -10 -69 -52 -242 -82 -332 -135 -412 -408 -794 -759 -1059
-68 -52 -147 -104 -240 -161 -48 -29 -245 -123 -257 -123 -8 0 -18 -4 -24 -9
-19 -18 -267 -94 -349 -107 -22 -3 -43 -8 -46 -9 -3 -2 -28 -7 -55 -10 -27 -4
-56 -8 -64 -10 -31 -8 -209 -19 -305 -19 -412 1 -824 124 -1176 350 -41 26
-76 50 -79 53 -3 4 -41 33 -85 65 -106 78 -302 277 -392 397 -251 334 -399
711 -440 1119 -13 130 -6 490 11 518 2 4 7 31 10 61 4 30 18 100 32 155 117
463 364 857 734 1171 124 105 346 241 530 323 112 50 327 118 435 138 59 10
158 24 215 30 36 3 66 7 68 9 6 5 311 -3 382 -10z"/>
<path d="M3507 4804 c-1 -1 -36 -5 -77 -8 -157 -15 -317 -60 -460 -130 -78
-39 -198 -110 -210 -125 -3 -3 -23 -19 -45 -36 -59 -43 -175 -161 -233 -235
-54 -70 -126 -189 -156 -255 -9 -22 -22 -49 -27 -60 -20 -43 -51 -144 -69
-225 -125 -560 111 -1135 595 -1450 161 -104 325 -167 540 -207 17 -3 98 -7
180 -9 150 -3 219 5 372 41 231 56 477 203 657 393 48 52 148 183 167 221 8
14 24 43 36 63 49 80 119 277 137 383 3 17 10 52 15 80 5 27 8 126 6 220 -2
153 -6 182 -35 294 -33 128 -92 278 -135 343 -14 21 -25 40 -25 44 0 6 -79
119 -110 158 -46 58 -188 189 -259 240 -168 120 -399 217 -576 241 -97 14
-280 25 -288 19z"/>
</g>
</svg>
